{"asset":{"generator":"3D Builder","version":"2.0"},"scene":0,"scenes":[{"nodes":[0]}],"nodes":[{"mesh":0,"matrix":[1.6328097581863403,0,0,0,0,-2.2095227336649259E-7,-1.8534817695617676,0,0,1.8866184949874878,-2.24902478862532E-7,0,0.01591889001429081,0.0071840770542621613,0.027377812191843987,1]}],"meshes":[{"primitives":[{"attributes":{"POSITION":0},"mode":4,"indices":28,"material":0},{"attributes":{"POSITION":1},"mode":4,"indices":29,"material":0},{"attributes":{"POSITION":2},"mode":4,"indices":30,"material":0},{"attributes":{"POSITION":3},"mode":4,"indices":31,"material":0},{"attributes":{"POSITION":4},"mode":4,"indices":32,"material":0},{"attributes":{"POSITION":5},"mode":4,"indices":33,"material":0},{"attributes":{"POSITION":6},"mode":4,"indices":34,"material":0},{"attributes":{"POSITION":7},"mode":4,"indices":35,"material":0},{"attributes":{"POSITION":8},"mode":4,"indices":36,"material":0},{"attributes":{"POSITION":9},"mode":4,"indices":37,"material":0},{"attributes":{"POSITION":10},"mode":4,"indices":38,"material":0},{"attributes":{"POSITION":11},"mode":4,"indices":39,"material":0},{"attributes":{"POSITION":12},"mode":4,"indices":40,"material":0},{"attributes":{"POSITION":13},"mode":4,"indices":41,"material":0},{"attributes":{"POSITION":14},"mode":4,"indices":42,"material":0},{"attributes":{"POSITION":15},"mode":4,"indices":43,"material":0},{"attributes":{"POSITION":16},"mode":4,"indices":44,"material":0},{"attributes":{"POSITION":17},"mode":4,"indices":45,"material":0},{"attributes":{"POSITION":18},"mode":4,"indices":46,"material":0},{"attributes":{"POSITION":19},"mode":4,"indices":47,"material":0},{"attributes":{"POSITION":20},"mode":4,"indices":48,"material":0},{"attributes":{"POSITION":21},"mode":4,"indices":49,"material":0},{"attributes":{"POSITION":22},"mode":4,"indices":50,"material":0},{"attributes":{"POSITION":23},"mode":4,"indices":51,"material":0},{"attributes":{"POSITION":24},"mode":4,"indices":52,"material":0},{"attributes":{"POSITION":25},"mode":4,"indices":53,"material":0},{"attributes":{"POSITION":26},"mode":4,"indices":54,"material":0},{"attributes":{"POSITION":27},"mode":4,"indices":55,"material":0}]}],"materials":[{"name":"Metallic","pbrMetallicRoughness":{"baseColorFactor":[0.90466135740280151,0.52711522579193115,0.097587361931800842,1],"metallicFactor":1,"roughnessFactor":0.30000001192092896},"alphaMode":"OPAQUE"}],"accessors":[{"bufferView":0,"byteOffset":0,"count":7835,"componentType":5126,"type":"VEC3","min":[-0.032039925456047058,-0.017458472400903702,3.7252902984619141E-9],"max":[0.032039918005466461,0.017458446323871613,0.053004886955022812]},{"bufferView":0,"byteOffset":94020,"count":623,"componentType":5126,"type":"VEC3","min":[-0.0097505748271942139,-0.016554161906242371,0.019759600982069969],"max":[0.016542203724384308,0.00074879080057144165,0.049261700361967087]},{"bufferView":0,"byteOffset":101496,"count":115,"componentType":5126,"type":"VEC3","min":[0.0040713176131248474,-0.0026232749223709106,0.021508600562810898],"max":[0.016542203724384308,0.0018424242734909058,0.049261700361967087]},{"bufferView":0,"byteOffset":102876,"count":187,"componentType":5126,"type":"VEC3","min":[0.0062424764037132263,-0.00095237791538238525,0.023284701630473137],"max":[0.016081303358078003,0.0069046169519424438,0.048978399485349655]},{"bufferView":0,"byteOffset":105120,"count":107,"componentType":5126,"type":"VEC3","min":[-0.013555116951465607,-0.01610175147652626,0.024893799796700478],"max":[0.0036819949746131897,-0.0049318745732307434,0.048978395760059357]},{"bufferView":0,"byteOffset":106404,"count":392,"componentType":5126,"type":"VEC3","min":[-0.013789243996143341,-0.01610175147652626,0.028005402535200119],"max":[0.0069345757365226746,-0.0052582621574401855,0.048978395760059357]},{"bufferView":0,"byteOffset":111108,"count":50,"componentType":5126,"type":"VEC3","min":[-0.011005721986293793,-0.009915865957736969,0.030515700578689575],"max":[-0.0046630203723907471,-0.0048256218433380127,0.0388948954641819]},{"bufferView":0,"byteOffset":111708,"count":40,"componentType":5126,"type":"VEC3","min":[0.0043953657150268555,-0.011539645493030548,0.030515700578689575],"max":[0.0088015422224998474,-0.0067053809762001038,0.040179897099733353]},{"bufferView":0,"byteOffset":112188,"count":284,"componentType":5126,"type":"VEC3","min":[-0.014496862888336182,0.0044283941388130188,0.028005404397845268],"max":[0.0054867714643478394,0.015508472919464111,0.048978403210639954]},{"bufferView":0,"byteOffset":115596,"count":238,"componentType":5126,"type":"VEC3","min":[-0.010890752077102661,0.00539756566286087,0.028005404397845268],"max":[0.00969359278678894,0.016092829406261444,0.048978403210639954]},{"bufferView":0,"byteOffset":118452,"count":618,"componentType":5126,"type":"VEC3","min":[-0.015554748475551605,-4.2542815208435059E-6,0.019759600982069969],"max":[0.015134774148464203,0.016544431447982788,0.049261704087257385]},{"bufferView":0,"byteOffset":125868,"count":111,"componentType":5126,"type":"VEC3","min":[-0.015092626214027405,0.0017239898443222046,0.029367906972765923],"max":[-0.0073272138833999634,0.0086311325430870056,0.048978399485349655]},{"bufferView":0,"byteOffset":127200,"count":293,"componentType":5126,"type":"VEC3","min":[-0.01726212352514267,-0.017279364168643951,0.019759600982069969],"max":[0.017262116074562073,0.017270028591156006,0.049261704087257385]},{"bufferView":0,"byteOffset":130716,"count":33,"componentType":5126,"type":"VEC3","min":[-0.015175074338912964,0.0032708421349525452,0.028005404397845268],"max":[-0.00709204375743866,0.010298661887645721,0.048978399485349655]},{"bufferView":0,"byteOffset":131112,"count":29,"componentType":5126,"type":"VEC3","min":[-0.015553757548332214,0.001712992787361145,0.028005404397845268],"max":[-0.0092737525701522827,0.0058678686618804932,0.048978399485349655]},{"bufferView":0,"byteOffset":131460,"count":28,"componentType":5126,"type":"VEC3","min":[-0.016056902706623077,6.83218240737915E-6,0.028679704293608665],"max":[-0.010134205222129822,0.0030293315649032593,0.048978399485349655]},{"bufferView":0,"byteOffset":131796,"count":32,"componentType":5126,"type":"VEC3","min":[-0.01269744336605072,-0.00040005892515182495,0.030515702441334724],"max":[-0.010769538581371307,0.0020811110734939575,0.040179900825023651]},{"bufferView":0,"byteOffset":132180,"count":38,"componentType":5126,"type":"VEC3","min":[-0.012191981077194214,0.0009484514594078064,0.030515702441334724],"max":[-0.009448707103729248,0.0059939771890640259,0.0388948991894722]},{"bufferView":0,"byteOffset":132636,"count":52,"componentType":5126,"type":"VEC3","min":[-0.015554748475551605,-4.2542815208435059E-6,0.019759600982069969],"max":[0.016489319503307343,0.0069958791136741638,0.049261704087257385]},{"bufferView":0,"byteOffset":133260,"count":17,"componentType":5126,"type":"VEC3","min":[-0.015936858952045441,0.00054112821817398071,0.027346400544047356],"max":[-0.0093921646475791931,0.0041480883955955505,0.048978399485349655]},{"bufferView":0,"byteOffset":133464,"count":9,"componentType":5126,"type":"VEC3","min":[-0.015732526779174805,0.0016616731882095337,0.028005404397845268],"max":[-0.0097230896353721619,0.0046183764934539795,0.048978399485349655]},{"bufferView":0,"byteOffset":133572,"count":37,"componentType":5126,"type":"VEC3","min":[-0.016094401478767395,-0.0033843293786048889,0.028679704293608665],"max":[-0.010262198746204376,0.0013675466179847717,0.048978395760059357]},{"bufferView":0,"byteOffset":134016,"count":111,"componentType":5126,"type":"VEC3","min":[-0.016094401478767395,-0.0089626386761665344,0.024893799796700478],"max":[-0.0062686875462532043,0.0017610862851142883,0.048978395760059357]},{"bufferView":0,"byteOffset":135348,"count":87,"componentType":5126,"type":"VEC3","min":[-0.013650417327880859,-0.0065912529826164246,0.029367905110120773],"max":[-0.0095243453979492188,0.001132577657699585,0.043972592800855637]},{"bufferView":0,"byteOffset":136392,"count":36,"componentType":5126,"type":"VEC3","min":[-0.012359701097011566,-0.0045456141233444214,0.030515702441334724],"max":[-0.010192371904850006,8.7320804595947266E-6,0.0388948991894722]},{"bufferView":0,"byteOffset":136824,"count":53,"componentType":5126,"type":"VEC3","min":[-0.015350513160228729,-0.0089626386761665344,0.028679702430963516],"max":[-0.0087359026074409485,-0.0028556287288665771,0.048978395760059357]},{"bufferView":0,"byteOffset":137460,"count":13,"componentType":5126,"type":"VEC3","min":[-0.0094963237643241882,0.00132790207862854,0.023284701630473137],"max":[-0.0060839876532554626,0.0022875666618347168,0.027346400544047356]},{"bufferView":0,"byteOffset":137616,"count":3,"componentType":5126,"type":"VEC3","min":[-0.012994304299354553,0.00143519788980484,0.040179900825023651],"max":[-0.012526921927928925,0.00261080265045166,0.04145510122179985]},{"bufferView":1,"byteOffset":0,"count":46818,"componentType":5125,"type":"SCALAR"},{"bufferView":1,"byteOffset":187272,"count":3267,"componentType":5125,"type":"SCALAR"},{"bufferView":1,"byteOffset":200340,"count":456,"componentType":5125,"type":"SCALAR"},{"bufferView":1,"byteOffset":202164,"count":888,"componentType":5125,"type":"SCALAR"},{"bufferView":1,"byteOffset":205716,"count":366,"componentType":5125,"type":"SCALAR"},{"bufferView":1,"byteOffset":207180,"count":1986,"componentType":5125,"type":"SCALAR"},{"bufferView":1,"byteOffset":215124,"count":177,"componentType":5125,"type":"SCALAR"},{"bufferView":1,"byteOffset":215832,"count":117,"componentType":5125,"type":"SCALAR"},{"bufferView":1,"byteOffset":216300,"count":1287,"componentType":5125,"type":"SCALAR"},{"bufferView":1,"byteOffset":221448,"count":945,"componentType":5125,"type":"SCALAR"},{"bufferView":1,"byteOffset":225228,"count":3108,"componentType":5125,"type":"SCALAR"},{"bufferView":1,"byteOffset":237660,"count":465,"componentType":5125,"type":"SCALAR"},{"bufferView":1,"byteOffset":239520,"count":1140,"componentType":5125,"type":"SCALAR"},{"bufferView":1,"byteOffset":244080,"count":93,"componentType":5125,"type":"SCALAR"},{"bufferView":1,"byteOffset":244452,"count":84,"componentType":5125,"type":"SCALAR"},{"bufferView":1,"byteOffset":244788,"count":72,"componentType":5125,"type":"SCALAR"},{"bufferView":1,"byteOffset":245076,"count":114,"componentType":5125,"type":"SCALAR"},{"bufferView":1,"byteOffset":245532,"count":135,"componentType":5125,"type":"SCALAR"},{"bufferView":1,"byteOffset":246072,"count":144,"componentType":5125,"type":"SCALAR"},{"bufferView":1,"byteOffset":246648,"count":42,"componentType":5125,"type":"SCALAR"},{"bufferView":1,"byteOffset":246816,"count":12,"componentType":5125,"type":"SCALAR"},{"bufferView":1,"byteOffset":246864,"count":84,"componentType":5125,"type":"SCALAR"},{"bufferView":1,"byteOffset":247200,"count":444,"componentType":5125,"type":"SCALAR"},{"bufferView":1,"byteOffset":248976,"count":336,"componentType":5125,"type":"SCALAR"},{"bufferView":1,"byteOffset":250320,"count":123,"componentType":5125,"type":"SCALAR"},{"bufferView":1,"byteOffset":250812,"count":168,"componentType":5125,"type":"SCALAR"},{"bufferView":1,"byteOffset":251484,"count":24,"componentType":5125,"type":"SCALAR"},{"bufferView":1,"byteOffset":251580,"count":3,"componentType":5125,"type":"SCALAR"}],"bufferViews":[{"buffer":0,"byteOffset":0,"byteLength":137652,"byteStride":12,"target":34962},{"buffer":0,"byteOffset":137652,"byteLength":251592,"target":34963}],"buffers":[{"byteLength":389244,"uri":"trophy-cup.bin"}]}